<svg width="174" height="50" viewBox="0 0 174 50" fill="none" xmlns="http://www.w3.org/2000/svg">
<path fill-rule="evenodd" clip-rule="evenodd" d="M63.717 0H39.5213C38.2801 0 37.1736 0.781654 36.759 1.95129L20.3638 48.2019H37.2484L48.3604 16.855C48.9925 15.0727 50.6784 13.8816 52.5691 13.8816H63.717V0ZM63.717 17.1602H53.8049C52.5641 17.1602 51.4576 17.9419 51.043 19.1114L46.8134 31.042H63.717V17.1602ZM63.717 34.3203H47.7216C46.4804 34.3203 45.3743 35.1019 44.9597 36.2713L40.7297 48.2019H63.717V34.3203ZM13.074 17.1603C11.833 17.1603 10.7266 17.942 10.312 19.1117L0 48.2019H16.8846L27.8882 17.1603H13.074Z" fill="black"/>
<path d="M90.5358 5.70976V3.32639H87.7506C85.2664 3.32639 83.8566 4.43416 83.1518 6.7504V3.32639H80.4662V20.245H83.1518V12.7928C83.1518 8.79808 84.1252 5.70976 87.5492 5.70976H90.5358Z" fill="black"/>
<path d="M98.6119 3.05831C94.8186 3.05831 91.7302 5.47525 91.4281 8.73144H93.9791C94.1134 6.88515 96.0605 5.34099 98.5448 5.34099C101.431 5.34099 103.076 6.91871 103.076 9.23496C103.076 9.77208 102.741 10.1413 102.002 10.1413H98.1752C94.0798 10.1413 91.4281 12.189 91.4281 15.4116C91.4281 18.4999 93.7441 20.5141 97.3025 20.5141C99.9209 20.5141 102.17 19.272 103.076 17.325V20.2455H105.762V9.33565C105.762 5.57598 103.009 3.05831 98.6119 3.05831ZM97.7052 18.2314C95.5571 18.2314 94.1805 17.1236 94.1805 15.378C94.1805 13.3975 95.8256 12.189 98.3434 12.189H103.076V12.6254C103.076 16.1166 101.096 18.2314 97.7052 18.2314Z" fill="black"/>
<path d="M107.721 20.2455H110.407V11.1148C110.407 7.82506 112.488 5.50881 115.375 5.50881C117.926 5.50881 119.604 7.4558 119.604 10.3427V20.2455H122.29V9.90634C122.29 5.77737 119.806 3.05831 115.979 3.05831C113.394 3.05831 111.279 4.23321 110.407 6.58302V3.32687H107.721V20.2455Z" fill="black"/>
<path d="M137.644 3.32687V5.81094C136.604 4.19965 134.321 3.05831 132.038 3.05831C126.768 3.05831 123.881 6.85158 123.881 11.7862C123.881 16.7208 126.768 20.5141 132.038 20.5141C134.589 20.5141 136.839 19.4734 137.644 17.8957V19.0817C137.644 21.3308 136.1 22.9756 133.918 22.9756H126.097V25.292H134.086C137.745 25.292 140.33 22.7743 140.33 19.1824V3.32687H137.644ZM132.273 18.0971C128.849 18.0971 126.634 15.613 126.634 11.7862C126.634 7.95936 128.849 5.47525 132.273 5.47525C135.664 5.47525 137.879 7.95936 137.879 11.7862C137.879 15.613 135.664 18.0971 132.273 18.0971Z" fill="black"/>
<path d="M155.288 14.8074C154.751 16.9222 153.005 18.1307 150.253 18.1307C147.063 18.1307 144.747 15.6466 144.546 12.1555H157.772C157.806 11.9205 157.839 11.3498 157.839 10.9806C157.839 6.48233 154.885 3.05831 149.95 3.05831C144.982 3.05831 141.894 6.71732 141.894 11.6855C141.894 16.5194 145.251 20.5141 150.253 20.5141C154.449 20.5141 157.436 18.265 158.007 14.8074H155.288ZM149.95 5.34099C152.971 5.34099 154.885 7.15371 155.086 10.007H144.68C145.183 7.01941 147.097 5.34099 149.95 5.34099Z" fill="black"/>
<path fill-rule="evenodd" clip-rule="evenodd" d="M87.425 42.7689C90.1736 42.7689 91.9167 41.5625 92.453 39.4505H95.168C94.5981 42.9032 91.615 45.149 87.425 45.149C82.4306 45.149 79.0787 41.1601 79.0787 36.3331C79.0787 31.3723 82.1625 27.719 87.1233 27.719C92.0506 27.719 95.0005 31.1378 95.0005 35.6294C95.0005 35.9983 94.9669 36.5681 94.9334 36.8027H81.7269C81.9279 40.2885 84.2405 42.7689 87.425 42.7689ZM92.2516 34.6575C92.0506 31.8083 90.14 29.9981 87.1233 29.9981C84.2741 29.9981 82.3635 31.674 81.8608 34.6575H92.2516ZM99.784 44.8809H97.1022V27.9872H99.784V31.2385C100.656 28.8919 102.767 27.719 105.348 27.719C109.169 27.719 111.65 30.434 111.65 34.5569V44.8809H108.968V34.9924C108.968 32.11 107.292 30.1659 104.745 30.1659C101.862 30.1659 99.784 32.4785 99.784 35.7637V44.8809ZM126.982 39.4505C126.445 41.5625 124.702 42.7689 121.954 42.7689C118.769 42.7689 116.456 40.2885 116.255 36.8027H129.462C129.495 36.5681 129.529 35.9983 129.529 35.6294C129.529 31.1378 126.579 27.719 121.652 27.719C116.691 27.719 113.607 31.3723 113.607 36.3331C113.607 41.1601 116.959 45.149 121.954 45.149C126.144 45.149 129.127 42.9032 129.696 39.4505H126.982ZM121.652 29.9981C124.669 29.9981 126.579 31.8083 126.78 34.6575H116.389C116.892 31.674 118.803 29.9981 121.652 29.9981ZM141.05 27.9872V30.3669H138.703C135.285 30.3669 134.312 33.4507 134.312 37.4393V44.8809H131.631V27.9872H134.312V31.4059C135.016 29.0933 136.424 27.9872 138.904 27.9872H141.05ZM154.517 27.9872V30.4676C153.478 28.8587 151.199 27.719 148.919 27.719C143.657 27.719 140.774 31.5066 140.774 36.4338C140.774 41.3611 143.657 45.149 148.919 45.149C151.467 45.149 153.713 44.1097 154.517 42.5344V43.7954C154.517 46.0412 152.975 47.6836 150.796 47.6836H142.986V49.9966H150.964C154.618 49.9966 157.198 47.4826 157.198 43.896V27.9872H154.517ZM149.154 42.7354C145.735 42.7354 143.523 40.255 143.523 36.4338C143.523 32.6127 145.735 30.1323 149.154 30.1323C152.539 30.1323 154.752 32.6127 154.752 36.4338C154.752 40.255 152.539 42.7354 149.154 42.7354ZM170.827 27.9872H173.642L168.28 42.5679L165.775 50H163.176L164.76 45.149L158.458 27.9872H161.24L166.034 41.3947L170.827 27.9872Z" fill="black"/>
</svg>
